<svg xmlns="http://www.w3.org/2000/svg" viewBox="0 0 231 231"><path d="M33.83,33.83a115.5,115.5,0,1,1,0,163.34,115.49,115.49,0,0,1,0-163.34Z" style="fill:#fc0;" /><path d="m115.5 51.75a63.75 63.75 0 0 0-10.5 126.63v14.09a115.5 115.5 0 0 0-53.729 19.027 115.5 115.5 0 0 0 128.46 0 115.5 115.5 0 0 0-53.729-19.029v-14.084a63.75 63.75 0 0 0 53.25-62.881 63.75 63.75 0 0 0-63.65-63.75 63.75 63.75 0 0 0-0.09961 0z" style="fill:#fee3c5;" /><path d="m141.74 195a114.93 114.93 0 0 1 37.912 16.45l0.07 0.05c-1.17 0.79-2.3601 1.55-3.5601 2.29a115.55 115.55 0 0 1-120.95 0.21q-2.0001-1.23-4.0002-2.54a114.79 114.79 0 0 1 38.002-16.5 116.21 116.21 0 0 1 15.791-2.49v-14.57c1.32 0.22 2.6501 0.39 4.0002 0.51 2.0001 0.19 4.0002 0.28 6.1202 0.29a64.333 64.33 0 0 0 8.8804-0.62c0.67003-0.09 1.3401-0.2 2.0001-0.31v14.69a118 118 0 0 1 15.741 2.54z" style="fill:#000;" /><path d="m79.292 212a3.4601 3.46 0 0 0 3.8902 5.07 3.3801 3.38 0 0 0 2.1001-1.61 3.4701 3.47 0 0 0-1.2801-4.72 3.4201 3.42 0 0 0-2.6201-0.34 3.5101 3.51 0 0 0-2.0901 1.6zm60.122 0.46a3.4901 3.49 0 0 0 1.21 4.7h0.06a3.4601 3.46 0 0 0 4.7202-1.27l0.07-0.13a3.4601 3.46 0 0 0-1.34-4.6 3.4601 3.46 0 0 0-2.5801-0.32 3.5301 3.53 0 0 0-2.1001 1.61zm9.8004 5.7 5.8602 5.87c-1.39 0.5-2.7901 1-4.2102 1.44l-4.4802-4.47a7.5203 7.52 0 0 1-1.9401 0.81 7.8303 7.83 0 0 1-6.0002-0.79 7.8703 7.87 0 0 1-2.9201-10.69v-0.07a7.8903 7.89 0 0 1 10.77-2.88l0.12 0.07a7.8603 7.86 0 0 1 2.7901 10.62v0.07zm-37.701-2.36-9.5004 9.51v4.9c-1.35-0.16-2.6801-0.33-4.0002-0.54v-6l0.58002-0.58 10.1-10.09a7.8703 7.87 0 1 1 2.8401 2.86zm7.3203-5.91a3.4601 3.46 0 1 0-1.6101 2.1 3.3801 3.38 0 0 0 1.6101-2.1zm-29.741 7.82 3.0901 3.1 0.59002 0.59v7.36c-1.3401-0.26-2.6801-0.55-4.0002-0.87v-4.84l-2.5101-2.51a7.5203 7.52 0 0 1-1.9401 0.81 7.8803 7.88 0 1 1 1.9101-14.43 7.8703 7.87 0 0 1 2.8901 10.75z" style="fill:#fff;" /><path d="m156.1 15.879c-0.38556 5.3015-1.7049 9.4762-3.6602 12.76-0.41226 23.773-9.2343 35.229-15.154 42.797l15.062-4.6641c-0.66253 2.8135-2.4628 7.156-0.34766 12.137 1.6334-2.3144 7.9395-5.807 13-3.3477-0.43442 3.5532-0.95271 7.094-1.4512 10.639l8.9648 0.85937c0.83453 3.8792 0.51719 9.3449-0.59961 11.736l5.5508 2.0098c0.20764 2.7646 0.10001 5.4906-0.74609 8.875 8.4545-1.7225 14.213-4.3896 19.641-13.188 2.8639-4.7524 4.9018-10.483 4.7305-17.242-4.1612 4.916-9.6484 7.2485-15.26 10.109 6.507-11.065 8.8648-22.768 8.1367-30.58-7.3456 10.251-11.649 13.06-19.918 16.9 1.2386-11.4 5.5249-18.582 12.461-27.27-11.392-1.3025-16.301 1.4749-24.891 6.4395 4.5466-14.036 2.2208-26.679-5.5195-38.971zm-117.76 28.682c9.3378 3.6366 19.581 9.0234 21.129 18.549-7.6182 0.0414-14.897-3.5072-20.242-7.1894-0.15967 8.2309 2.8451 12.252 6.7734 19.08-7.2127 1.6129-12.084 4.8315-17.471 9.4805 7.2948-0.15715 12.299-1.0502 16.891 4.2793-6.0512 5.0164-11.99 10.79-11.99 19.24 9.257-6.1688 12.495-5.9486 21.137-2.2012 1.2906-8.0996 2.3978-14.872 2.7869-16.435 2.4719-0.73247 3.5247-0.94807 5.9221-1.2938-2.1556-7.4281 1.0996-9.5176 2.4141-11.6l7.543 1.5059c-3.9093-6.1699 2.6565-12.483 7.1445-15.51-4.4474-7.2082-5.6649-11.558-7.377-16.797-11.198-8.2947-23.895-6.2742-34.66-1.1094z" style="fill:#ff90f4;" /><path d="m101.9 7.6408c-10.047 6.2416-12.441 28.646-12.131 33.289-6.9249-5.8258-7.8992-13.75-7.7695-19.203-9.6235 6.0158-10.666 14.421-9 23.943 1.1061 5.1411 2.3972 10.461 7.377 16.797 2e-3 -1e-3 4e-3 -3e-3 6e-3 -4e-3 2.7742 2.8742 5.4644 5.5941 8.3477 8.3574 0.41187-6.971 0.45449-13.622 7.1856-15.824 3.9532 2.8169 7.4123 5.9388 11.084 9.1035l10.559-10.25c5.6447 3.961 5.4531 6.5652 6.5215 14.104 2.153-1.7546 8.719-9.0037 15.844-10.139 0.98706 4.1261-0.99388 10.308-2.6387 13.621 0 0 14.32-11.846 15.195-27.971 0.33968-6.2599 0.2237-11.146-0.041-14.826-3.2125 5.5652-8.7118 8.7799-13.789 10.15-4.2715-9.2486-2.4785-21.435-0.48047-29.309-12.21 3.0195-20.932 18.337-22.172 25.07-9.2678-7.397-13.605-16.146-14.098-26.91z" style="fill:#ff90f4;" /><path d="m170.25 100c1.69 9.62-4.79 29.23-22.4 29.23-6.81 0-15-3.66-20.23-10-4.34-5.33-7.56-12.87-6.2-19.45 1.63-7.89 7.07-11.45 14.67-12.92a68.16 68.16 0 0 1 12.52-1c10.77 0 19.78 3.61 21.64 14.22z" style="fill:#00b5b4;stroke-width:3.99px;stroke:#000;" /><path d="m60.75 100c-1.69 9.62 4.79 29.23 22.4 29.23 6.81 0 15-3.66 20.23-10 4.34-5.33 7.56-12.87 6.2-19.45-1.63-7.89-7.07-11.45-14.67-12.92a68.16 68.16 0 0 0-12.52-1c-10.77 0-19.78 3.61-21.64 14.22z" style="fill:#00b5b4;stroke-width:3.99px;stroke:#000;" /><line x1="100.2" x2="130.8" y1="87.92" y2="87.92" style="fill:none;stroke-linecap:round;stroke-linejoin:round;stroke-width:3.99px;stroke:#000;" /><path d="m109.87 101.73c0-2.59 2.52-4.69 5.63-4.69s5.63 2.1 5.63 4.69" style="fill:none;stroke-width:3.99px;stroke:#000;" /><path d="m115.5 131c-17.71 0.65-27 9.41-29.61 23.69-1 5.62-0.43 7.06 2.76 7.17 22.76 0.76 22.23 18.21 26.85 18.89 4.62-0.68 4.09-18.13 26.85-18.89 3.19-0.11 3.79-1.55 2.76-7.17-2.62-14.28-11.9-23-29.61-23.69zm0 29.31c-10 0-18-5-18-11.17s8.08-11.17 18-11.17 18 5 18 11.17-8.08 11.17-18 11.17z" style="fill:#6b0000;" /><path d="m123.54 148.46a11.53 11.53 0 0 1-16.09 0" style="fill:none;stroke-linecap:round;stroke-linejoin:round;stroke-width:6.7998px;stroke:#000;" /></svg>